inDegrees=no
num_controls=7
num_derivatives=13
num_iterations=131
num_multipliers=7
num_parameters=0
num_slacks=7
num_states=26
objective=5.501359
objective_accelerations=0.800938
objective_balance=0.023463
objective_effort=0.188172
objective_height=4.369966
objective_ligament=0.118821
solver_duration=1440.199735
status=Solve_Succeeded
success=true
DataType=double
version=3
OpenSimVersion=4.4-2022-07-23-0e9fedc
endheader
time	/jointset/ground_pelvis/pelvis_tilt/value	/jointset/ground_pelvis/pelvis_tx/value	/jointset/ground_pelvis/pelvis_ty/value	/jointset/hip_l/hip_flexion_l/value	/jointset/hip_l/hip_adduction_l/value	/jointset/hip_l/hip_rotation_l/value	/jointset/back/lumbar_extension/value	/jointset/patellofemoral_l/patellar_flexion_l/value	/jointset/knee_l/knee_flexion_l/value	/jointset/knee_l/knee_adduction_l/value	/jointset/knee_l/knee_rotation_l/value	/jointset/ankle_l/ankle_angle_l/value	/jointset/subtalar_l/subtalar_angle_l/value	/jointset/ground_pelvis/pelvis_tilt/speed	/jointset/ground_pelvis/pelvis_tx/speed	/jointset/ground_pelvis/pelvis_ty/speed	/jointset/hip_l/hip_flexion_l/speed	/jointset/hip_l/hip_adduction_l/speed	/jointset/hip_l/hip_rotation_l/speed	/jointset/back/lumbar_extension/speed	/jointset/patellofemoral_l/patellar_flexion_l/speed	/jointset/knee_l/knee_flexion_l/speed	/jointset/knee_l/knee_adduction_l/speed	/jointset/knee_l/knee_rotation_l/speed	/jointset/ankle_l/ankle_angle_l/speed	/jointset/subtalar_l/subtalar_angle_l/speed	/forceset/tau_hip_flexion_l	/forceset/tau_hip_adduction_l	/forceset/tau_hip_rotation_l	/forceset/tau_knee_flexion_l	/forceset/tau_ankle_angle_l	/forceset/tau_subtalar_angle_l	/forceset/tau_lumbar_extension	lambda_cid13_p0	lambda_cid13_p1	lambda_cid13_p2	lambda_cid13_p3	lambda_cid13_p4	lambda_cid13_p5	lambda_cid14_p0	/jointset/ground_pelvis/pelvis_tilt/accel	/jointset/ground_pelvis/pelvis_tx/accel	/jointset/ground_pelvis/pelvis_ty/accel	/jointset/hip_l/hip_flexion_l/accel	/jointset/hip_l/hip_adduction_l/accel	/jointset/hip_l/hip_rotation_l/accel	/jointset/back/lumbar_extension/accel	/jointset/patellofemoral_l/patellar_flexion_l/accel	/jointset/knee_l/knee_flexion_l/accel	/jointset/knee_l/knee_adduction_l/accel	/jointset/knee_l/knee_rotation_l/accel	/jointset/ankle_l/ankle_angle_l/accel	/jointset/subtalar_l/subtalar_angle_l/accel	gamma_cid13_p0	gamma_cid13_p1	gamma_cid13_p2	gamma_cid13_p3	gamma_cid13_p4	gamma_cid13_p5	gamma_cid14_p0
0	0.04936461972780371	0.1072708251944842	0.9036152868649956	0.1266917050730164	-0.3638183596609311	-0.235814670120237	-0.2144974744115991	0.2051547269256828	0.2051547269256735	-0.1612439374804104	-0.1675391918531243	0.09024399430361882	0.08590678658639037	0	0	0	0	0	0	0	0	0	0	0	0	0	0.1245021666649907	-0.08718278895210425	-0.01224482421214367	-0.2636843148361755	0.2004790875085927	-0.06247284331195094	-0.05505421541671329	34.95248974188857	22.3694639083043	-5.397832743851144	-24.62120957896702	-438.7564594586555	-72.77909114305645	-26.40278756863253	-3.785367464927596	-1.06619808885811	-0.9072860094469385	12.2343652638943	-0.1010236496617864	3.477792465805903	-3.701860426318814	11.10983166336611	11.10983166336692	2.640326320693923	-0.7204519850198516	3.760493382241993	0.9984998094199928	1.072212884451229e-08	6.811191127761826e-07	-1.831030883894286e-07	5.871492147528666e-08	3.249930352326044e-08	3.403178396392618e-07	9.390407707880962e-08
0.01	0.04918364188417084	0.1072180679719662	0.9035712550567453	0.1272865138055452	-0.3638223347774445	-0.235633545016688	-0.2146869734562934	0.2056966684592787	0.2056966684592579	-0.1611138549380214	-0.1675629273969332	0.09042779138736111	0.08595649600011496	-0.03605569764977103	-0.01052444210038545	-0.008782970599999062	0.1184634241004072	-0.0008030961390519309	0.03608917642302156	-0.03762044101294262	0.1078745434224129	0.107874543422421	0.02585022245796556	-0.004683584177820796	0.03654696779937663	0.009871679401957486	0.1209248624407177	-0.09217909020899913	-0.01140475852982017	-0.2586702477061236	0.1914254524414016	-0.05520850960715046	-0.05229447835818665	32.43909244105695	19.36065673119595	-4.582344130733589	-23.07365252399777	-439.3968626591422	-78.58021681648064	-26.4024223254751	-3.49469001675136	-1.041505168674081	-0.8602874278434017	11.57758231856851	-0.07123596289609294	3.654151877410508	-3.750230749109225	10.54918240531099	10.54918240531159	2.532520560040722	-0.3328285614995513	3.569950129837759	0.9708861576870962	2.416271313338984e-09	9.539863600895231e-07	-1.786343108441887e-07	9.648659720980948e-08	-1.662690339590312e-07	3.770353151721347e-07	1.336329992102771e-07
0.02	0.04864630324366272	0.1070608787488336	0.9034400965739816	0.1290510070461852	-0.3638345975287389	-0.2350955938195677	-0.2152442958731815	0.2073019387718983	0.2073019387718924	-0.1607302401007721	-0.16763160216785	0.09097068847929811	0.0861027990382804	-0.0712721593694851	-0.02088640012293187	-0.01742533490270357	0.2339369016189594	-0.001657526952896736	0.07136521872046712	-0.07356467443890678	0.2126657557901032	0.2126657557901162	0.05070645898364078	-0.008987845449098012	0.07182000164083033	0.01931872488804413	0.1173475582170569	-0.09717539146581838	-0.01056469284818529	-0.2536561805755744	0.1823718173743814	-0.04794417590220618	-0.04953474129931089	29.97684968040148	16.357018063156	-3.783816424464035	-21.57671429560214	-439.1215922901944	-84.1778350959553	-26.40104829833604	-3.61752027891567	-1.033701273290843	-0.879164749988005	11.63637594752339	-0.1112905846203853	3.315165640690661	-3.36661890892283	10.49316545242162	10.49316545242177	2.441529134235827	-0.6445874037112279	3.505706590656739	0.9135730262456021	-5.889586217834321e-09	1.226853607402863e-06	-1.741655332989488e-07	1.342582729443323e-07	-3.650373714413229e-07	4.137527907050076e-07	1.733619213417446e-07
0.03	0.04776066072900268	0.1068007573968152	0.9032229034179151	0.1319561950166021	-0.3638555118990085	-0.2342107578690105	-0.2161523291513243	0.2099405305133252	0.2099405305134653	-0.1601027160031361	-0.167743105987873	0.09186002079430795	0.08634169221529085	-0.1057004075933644	-0.03112163414577934	-0.02601293861401473	0.3466074197434947	-0.002519344249000726	0.1054690818083878	-0.1077793783076091	0.3145467297214408	0.3145467297214542	0.07463394841831908	-0.01321892204713625	0.1058240612229853	0.02840501721520257	0.1130150437721926	-0.09231150337484025	-0.009565863790411081	-0.2480268909976595	0.1747659774762667	-0.04900507248956647	-0.04634482610940507	27.47102190345326	17.05469372458638	-3.664512525160241	-19.77754544434345	-438.9233086654364	-81.81497098665731	-26.39827716903961	-3.332077055290701	-1.015972043696509	-0.8485783377331706	11.00840135645084	-0.07288227858312019	3.438126665250325	-3.409505692624887	9.959649111731828	9.959649111732038	2.343885463066488	-0.2983249164525928	3.314433337868489	0.897750522545936	-1.047896361092028e-08	1.351550706945124e-06	-1.820753884202215e-07	1.549126987394598e-07	-4.969965955389377e-07	4.346124712926677e-07	1.947281474980492e-07
0.04	0.04653541573984726	0.1064387761891841	0.9029198301935292	0.1359732904905054	-0.3638848954375163	-0.2329888572830496	-0.2173946313815212	0.2135827491439021	0.2135827491438984	-0.159240811687979	-0.1678941119992834	0.09308272924431743	0.08666976695289237	-0.1391926542638225	-0.04125837124548134	-0.03460134856659589	0.4563184023293269	-0.003351360604200771	0.1387781457926287	-0.140418464847485	0.4133911335824452	0.4133911335824635	0.09758250245228492	-0.01688828378928024	0.1384952286400685	0.03715503700614594	0.10868252932661	-0.08744761528394007	-0.00856703473440089	-0.2423976014199134	0.1671601375780074	-0.05006596907703299	-0.04315491091993709	25.01155013321749	17.75952837662245	-3.563800199643704	-18.02010394860975	-437.8861249586008	-79.25702134940011	-26.39325063323461	-3.430319968230924	-1.014001888662257	-0.8793259982419804	11.04446883978286	-0.1053303964396453	3.15620581995467	-3.051495443157289	9.885851438355008	9.885851438356033	2.2457420540933	-0.5322444325324781	3.239128157641741	0.8463185190023694	-1.499171254755082e-08	1.473192751894166e-06	-1.902404730810099e-07	1.75214191546146e-07	-6.275783121440851e-07	4.551451870360966e-07	2.157157613662061e-07
0.05	0.0449792324426378	0.1059760220357815	0.9025305675343256	0.141073726088126	-0.3639224978937626	-0.2314398338884331	-0.2189548863206211	0.2181991809163704	0.2181991809163618	-0.1581543163885621	-0.1680810503150101	0.09462582410849531	0.08708376531011122	-0.171893500519451	-0.05126348111425379	-0.04327057243003593	0.5632659480923738	-0.004160919891349931	0.1708704846349722	-0.1713805267844324	0.5093908631716754	0.5093908631716891	0.1195361311097163	-0.02040809337310417	0.1699130776616995	0.04559846160785271	0.1043710671287865	-0.08511939044141574	-0.007512099985405135	-0.2376918738211127	0.1600324295762317	-0.04874904899198933	-0.0400135649233862	22.84341089732764	17.39815102313349	-3.313073864143833	-16.62113707923207	-437.0247355906059	-78.95455948257083	-26.38500828960993	-3.167374791459999	-0.9893835823161061	-0.8637555245940003	10.44448721958059	-0.06772423279196761	3.212414691321812	-3.080762139977899	9.381336745613226	9.381336745611907	2.143337848692696	-0.2482203944340571	3.061559643045757	0.8362192147820555	-1.612709027239208e-08	1.429449516291138e-06	-2.211808585257808e-07	1.779817841172395e-07	-6.889480591471539e-07	4.671262399999623e-07	2.17085359583838e-07
